<svg xmlns="http://www.w3.org/2000/svg" xmlns:xlink="http://www.w3.org/1999/xlink" width="75" zoomAndPan="magnify" viewBox="0 0 56.25 56.249997" height="75" preserveAspectRatio="xMidYMid meet" version="1.0"><defs><clipPath id="e4793a585c"><path d="M 1.730469 1.730469 L 53.542969 1.730469 L 53.542969 53.542969 L 1.730469 53.542969 Z M 1.730469 1.730469 " clip-rule="nonzero"/></clipPath></defs><g clip-path="url(#e4793a585c)"><path fill="#3b5998" d="M 9.503906 1.730469 L 45.769531 1.730469 C 46.28125 1.730469 46.785156 1.78125 47.285156 1.882812 C 47.785156 1.980469 48.273438 2.128906 48.746094 2.324219 C 49.214844 2.519531 49.664062 2.757812 50.085938 3.042969 C 50.511719 3.324219 50.90625 3.648438 51.265625 4.007812 C 51.625 4.371094 51.949219 4.761719 52.230469 5.1875 C 52.515625 5.609375 52.753906 6.058594 52.949219 6.53125 C 53.144531 7 53.292969 7.488281 53.390625 7.988281 C 53.492188 8.488281 53.542969 8.992188 53.542969 9.503906 L 53.542969 45.769531 C 53.542969 46.28125 53.492188 46.785156 53.390625 47.285156 C 53.292969 47.785156 53.144531 48.273438 52.949219 48.746094 C 52.753906 49.214844 52.515625 49.664062 52.230469 50.085938 C 51.949219 50.511719 51.625 50.90625 51.265625 51.265625 C 50.90625 51.625 50.511719 51.949219 50.085938 52.230469 C 49.664062 52.515625 49.214844 52.753906 48.746094 52.949219 C 48.273438 53.144531 47.785156 53.292969 47.285156 53.390625 C 46.785156 53.492188 46.28125 53.542969 45.769531 53.542969 L 9.503906 53.542969 C 8.992188 53.542969 8.488281 53.492188 7.988281 53.390625 C 7.488281 53.292969 7 53.144531 6.53125 52.949219 C 6.058594 52.753906 5.609375 52.515625 5.1875 52.230469 C 4.761719 51.949219 4.371094 51.625 4.007812 51.265625 C 3.648438 50.90625 3.324219 50.511719 3.042969 50.085938 C 2.757812 49.664062 2.519531 49.214844 2.324219 48.746094 C 2.128906 48.273438 1.980469 47.785156 1.882812 47.285156 C 1.78125 46.785156 1.730469 46.28125 1.730469 45.769531 L 1.730469 9.503906 C 1.730469 8.992188 1.78125 8.488281 1.882812 7.988281 C 1.980469 7.488281 2.128906 7 2.324219 6.53125 C 2.519531 6.058594 2.757812 5.609375 3.042969 5.1875 C 3.324219 4.761719 3.648438 4.371094 4.007812 4.007812 C 4.371094 3.648438 4.761719 3.324219 5.1875 3.042969 C 5.609375 2.757812 6.058594 2.519531 6.53125 2.324219 C 7 2.128906 7.488281 1.980469 7.988281 1.882812 C 8.488281 1.78125 8.992188 1.730469 9.503906 1.730469 Z M 9.503906 1.730469 " fill-opacity="1" fill-rule="nonzero"/></g><path fill="#ffffff" d="M 30.773438 47.875 L 30.773438 17.621094 C 30.773438 15.496094 31.382812 14.078125 34.316406 14.078125 L 38.160156 14.078125 L 38.160156 7.703125 C 37.453125 7.601562 35.226562 7.398438 32.59375 7.398438 C 27.132812 7.398438 23.386719 10.738281 23.386719 16.910156 L 23.386719 47.875 M 37.855469 22.171875 L 17.113281 22.171875 L 17.113281 29.457031 L 36.945312 29.457031 " fill-opacity="1" fill-rule="nonzero"/></svg>