<svg xmlns="http://www.w3.org/2000/svg" xmlns:xlink="http://www.w3.org/1999/xlink" width="32" height="32" viewBox="0 0 32 32">
  <defs>
    <linearGradient id="linear-gradient" x1="0.5" x2="0.5" y2="1" gradientUnits="objectBoundingBox">
      <stop offset="0" stop-color="#61fd7d"/>
      <stop offset="1" stop-color="#2bb826"/>
    </linearGradient>
  </defs>
  <g id="whatsapp" transform="translate(-864 -1291)">
    <rect id="Rectangle_518" data-name="Rectangle 518" width="32" height="32" rx="6" transform="translate(864 1291)" fill="url(#linear-gradient)"/>
    <g id="Group_2" data-name="Group 2" transform="translate(869.168 1296.12)">
      <path id="Path_20" data-name="Path 20" d="M25.39,9.21A10.788,10.788,0,0,0,8.413,22.22l-1.53,5.588,5.718-1.5a10.782,10.782,0,0,0,5.155,1.313h0A10.787,10.787,0,0,0,25.39,9.21ZM17.761,25.8h0a8.955,8.955,0,0,1-4.564-1.25l-.326-.194-3.393.89.906-3.307-.213-.339a8.965,8.965,0,1,1,7.595,4.2Zm4.916-6.712c-.27-.135-1.595-.787-1.842-.877s-.427-.135-.606.135-.7.877-.853,1.056-.314.2-.584.068a7.362,7.362,0,0,1-2.167-1.337,8.119,8.119,0,0,1-1.5-1.866c-.157-.27-.017-.416.118-.55s.27-.315.4-.472a1.837,1.837,0,0,0,.27-.449.5.5,0,0,0-.022-.472c-.067-.135-.606-1.461-.831-2s-.442-.454-.606-.462-.344-.01-.517-.009a.99.99,0,0,0-.719.337,3.022,3.022,0,0,0-.944,2.248,5.236,5.236,0,0,0,1.1,2.787,12.022,12.022,0,0,0,4.6,4.07,15.506,15.506,0,0,0,1.536.568,3.7,3.7,0,0,0,1.7.107,2.776,2.776,0,0,0,1.819-1.281,2.252,2.252,0,0,0,.157-1.281c-.068-.112-.247-.18-.517-.315Z" transform="translate(-6.883 -6.049)" fill="#fff"/>
    </g>
  </g>
</svg>
